<svg version="1.2" xmlns="http://www.w3.org/2000/svg" viewBox="0 0 256 256" width="256" height="256"><style>tspan{white-space:pre}.a{fill:#ffe600}.b{fill:#fff}.c{fill:#750ed2}.d{fill:#0f0}.e{fill:#00e7ff}.f{font-size: 45px;fill: #640dc5;font-weight: 400;font-family: "DejaVuSans", "DejaVu Sans"}</style><path class="a" d="m214.7 97.3l-62.3 30.3c-2.4 1.3-5.2-0.4-5.2-3.1v-60.7c0-2.6 2.8-4.4 5.2-3.1l62.3 30.3c2.7 1.3 2.7 5 0 6.3z"/><path fill-rule="evenodd" class="a" d="m150.8 132.6c-1.5 0-2.9-0.4-4.2-1.2-2.5-1.5-3.9-4-3.9-6.9v-60.7c0-2.8 1.5-5.4 3.9-6.9 2.4-1.5 5.4-1.6 7.9-0.3l62.2 30.3c0 0 0.1 0 0.1 0.1 2.7 1.4 4.4 4.1 4.4 7.2 0 3-1.7 5.7-4.4 7.1l-62.5 30.4c-1 0.6-2.2 0.9-3.5 0.9zm1-67.2v57.6l59.2-28.8zm-1.4-0.7z"/><path class="b" d="m61.1 67.5c0-6.7 7.2-11 13.1-8l157.1 76.5c6.5 3.3 6.5 12.6 0 15.9l-157.1 76.4c-6 3.1-13.1-1.2-13.1-8v-120.4"/><path class="c" d="m70.1 233.8c-2.4 0-4.8-0.7-7-2-4.1-2.5-6.5-6.7-6.5-11.6v-120.3c0-2.5 2-4.6 4.5-4.6 2.6 0 4.6 2 4.6 4.6v120.4c0 2.3 1.5 3.4 2.1 3.9 0.6 0.3 2.4 1.2 4.4 0.2l157.1-76.5c1.5-0.7 2.3-2.2 2.3-3.9 0-1.7-0.8-3.2-2.4-4l-157-76.4c-2.1-1.1-3.8-0.3-4.5 0-0.6 0.4-2.1 1.6-2.1 3.9 0 2.5-2 4.6-4.5 4.6-2.5 0-4.6-2.1-4.6-4.6 0-4.7 2.4-9 6.5-11.6 4-2.4 9-2.6 13.3-0.4l156.9 76.4c4.6 2.3 7.4 7 7.4 12 0 5-2.8 9.6-7.3 12l-157.1 76.4c-2 1.1-4 1.5-6.1 1.5z"/><path class="d" d="m164.9 147l-62.4 30.4c-2.4 1.2-5.2-0.5-5.2-3.2v-60.7c0-2.6 2.8-4.3 5.2-3.1l62.4 30.3c2.6 1.3 2.6 5 0 6.3z"/><path fill-rule="evenodd" class="d" d="m100.9 182.4c-1.5 0-2.9-0.5-4.2-1.3-2.5-1.5-3.9-4-3.9-6.9v-60.7c0-2.8 1.5-5.4 3.9-6.9 2.4-1.5 5.4-1.6 7.9-0.3l62.2 30.3c0 0 0.1 0 0.1 0.1 2.7 1.4 4.4 4.1 4.4 7.2 0 3-1.7 5.8-4.4 7.2l-62.5 30.3c-0.9 0.6-2.2 1-3.5 1zm1-67.3v57.6l59.2-28.8zm-1.3 58.2q-0.2 0.1 0 0zm0-58.8z"/><path class="e" d="m52 46.7c-1.2 0-2.3-0.4-3.2-1.3l-11.3-11.3c-1.8-1.7-1.8-4.6 0-6.4 1.7-1.7 4.6-1.7 6.4 0l11.3 11.3c1.8 1.8 1.8 4.7 0 6.4-0.9 0.9-2.1 1.3-3.2 1.3z"/><path class="e" d="m74.7 42.3c-2.5 0-4.6-2.1-4.6-4.6v-18.1c0-2.4 2-4.5 4.6-4.5 2.5 0 4.6 2 4.6 4.5v18.1c-0.1 2.5-2.1 4.6-4.6 4.6z"/><path class="e" d="m42.9 64.8h-18.1c-2.5 0-4.6-2-4.6-4.6 0-2.5 2.1-4.5 4.6-4.5h18.1c2.5 0 4.6 2 4.6 4.5 0 2.6-2.1 4.6-4.6 4.6z"/><text style="transform:matrix(.917,-0.398,.398,.917,173.73,231.968)" ><tspan x="-64.5" y="0" class="f">M</tspan><tspan  y="0" class="f">3</tspan><tspan  y="0" class="f">U</tspan><tspan  y="0" class="f">8</tspan><tspan  y="0" class="f">
</tspan></text></svg>